<?xml version="1.0" encoding="UTF-8"?>
<svg width="156px" height="32px" viewBox="0 0 156 32" version="1.1" xmlns="http://www.w3.org/2000/svg" xmlns:xlink="http://www.w3.org/1999/xlink">
    <!-- Generator: Sketch 52.6 (67491) - http://www.bohemiancoding.com/sketch -->
    <title>header/logo_your_calls</title>
    <desc>Created with Sketch.</desc>
    <g id="Symbols" stroke="none" stroke-width="1" fill="none" fill-rule="evenodd">
        <g id="header/desktop-01" transform="translate(-1244.000000, -32.000000)">
            <g id="header/logo_your_calls" transform="translate(1244.000000, 32.000000)">
                <rect id="Rectangle" fill="#343434" x="0" y="0" width="156" height="32" rx="2"></rect>
                <path d="M19.6159996,21 L17.7259996,21 L17.7259996,17.08 L14.0859996,11.2 L16.2279996,11.2 L18.7339996,15.316 L21.1979996,11.2 L23.2699996,11.2 L19.6159996,17.08 L19.6159996,21 Z M32.4579997,21.14 C29.6579997,21.14 27.6979997,19.25 27.6979997,16.1 C27.6979997,12.95 29.6579997,11.06 32.4579997,11.06 C35.2579997,11.06 37.2179997,12.95 37.2179997,16.1 C37.2179997,19.25 35.2579997,21.14 32.4579997,21.14 Z M32.3879997,19.46 L32.5279997,19.46 C34.2779997,19.46 35.3279997,18.2 35.3279997,16.1 C35.3279997,14 34.2779997,12.74 32.5279997,12.74 L32.3879997,12.74 C30.6379997,12.74 29.5879997,14 29.5879997,16.1 C29.5879997,18.2 30.6379997,19.46 32.3879997,19.46 Z M47.1339998,21.14 C44.4739998,21.14 43.2839998,19.81 43.2839998,17.57 L43.2839998,11.2 L45.1739998,11.2 L45.1739998,17.29 C45.1739998,18.83 45.8039998,19.46 47.0639998,19.46 L47.2039998,19.46 C48.4639998,19.46 49.0939998,18.83 49.0939998,17.29 L49.0939998,11.2 L50.9839998,11.2 L50.9839998,17.57 C50.9839998,19.81 49.7939998,21.14 47.1339998,21.14 Z M59.4859999,15.638 L61.5859999,15.638 C62.7059999,15.638 63.2659999,15.134 63.2659999,14.224 C63.2659999,13.314 62.7059999,12.88 61.5859999,12.88 L59.4859999,12.88 L59.4859999,15.638 Z M57.5959999,21 L57.5959999,11.2 L62.1459999,11.2 C63.8259999,11.2 65.1559999,12.32 65.1559999,13.86 C65.1559999,15.106 64.6099999,15.918 63.4899999,16.338 C64.5539999,16.338 65.0159999,16.842 65.0159999,17.724 L65.0159999,21 L63.1259999,21 L63.1259999,18.2 C63.1259999,17.5 62.9159999,17.29 62.2159999,17.29 L59.4859999,17.29 L59.4859999,21 L57.5959999,21 Z M85.604,17.78 L87.494,17.78 C87.354,19.698 85.968,21.14 83.378,21.14 C80.368,21.14 78.688,19.11 78.688,16.1 C78.688,13.09 80.368,11.06 83.378,11.06 C85.968,11.06 87.354,12.572 87.494,14.42 L85.604,14.42 C85.38,13.356 84.638,12.74 83.448,12.74 L83.308,12.74 C81.698,12.74 80.578,14 80.578,16.1 C80.578,18.2 81.698,19.46 83.308,19.46 L83.448,19.46 C84.638,19.46 85.38,18.872 85.604,17.78 Z M98.6420001,17.01 L97.2280001,13.3 L95.8140001,17.01 L98.6420001,17.01 Z M100.168,21 L99.2860001,18.69 L95.1700001,18.69 L94.2880001,21 L92.3000001,21 L96.1780001,11.2 L98.3900001,11.2 L102.17,21 L100.168,21 Z M107.802,21 L107.802,11.2 L109.692,11.2 L109.692,19.32 L115.222,19.32 L115.222,21 L107.802,21 Z M121.022,21 L121.022,11.2 L122.912,11.2 L122.912,19.32 L128.442,19.32 L128.442,21 L121.022,21 Z M139.52,14.28 C139.45,13.258 138.708,12.74 137.7,12.74 L137.56,12.74 C136.51,12.74 135.88,13.3 135.88,13.93 C135.88,14.574 136.23,14.868 137.07,15.036 L138.54,15.33 C140.22,15.666 141.256,16.534 141.256,18.13 C141.256,19.81 139.912,21.14 137.49,21.14 C134.802,21.14 133.57,19.74 133.5,17.71 L135.39,17.71 C135.46,18.69 136.16,19.46 137.63,19.46 L137.77,19.46 C138.82,19.46 139.366,18.9 139.366,18.27 C139.366,17.71 139.128,17.374 138.26,17.192 L136.51,16.828 C134.76,16.464 133.99,15.456 133.99,14 C133.99,12.53 135.292,11.06 137.7,11.06 C140.08,11.06 141.41,12.418 141.41,14.28 L139.52,14.28 Z" id="YOUR-CALLS" fill="#727272"></path>
            </g>
        </g>
    </g>
</svg>