<?xml version="1.0" encoding="UTF-8"?>
<svg width="127px" height="22px" viewBox="0 0 127 22" version="1.1" xmlns="http://www.w3.org/2000/svg" xmlns:xlink="http://www.w3.org/1999/xlink">
    <!-- Generator: sketchtool 52.6 (67491) - http://www.bohemiancoding.com/sketch -->
    <title>312DC93D-8EA2-4505-BAB2-5002F75D8DA9</title>
    <desc>Created with sketchtool.</desc>
    <g id="DESKTOP" stroke="none" stroke-width="1" fill="none" fill-rule="evenodd">
        <g id="desktop---nueva-llamada" transform="translate(-41.000000, -39.000000)" fill="#FFFFFF">
            <g id="header/01" transform="translate(1.000000, 0.000000)">
                <g id="Group">
                    <g id="logo/logo-interacso-white" transform="translate(40.000000, 39.000000)">
                        <g id="Logo">
                            <path d="M0,0.000127484909 L0,2.90742085 L3.54124747,2.90742085 L3.54124747,18.5122112 L0,18.5122112 L0,21.4195045 L7.23579293,21.4195045 L7.23579293,0.000127484909 L0,0.000127484909 Z M123.351636,13.7697726 C123.351636,10.5571528 121.780813,8.69013634 119.50251,8.69013634 L119.225419,8.69013634 C116.946475,8.69013634 115.345505,10.5571528 115.345505,13.7697726 C115.345505,16.9823923 116.946475,18.8487713 119.225419,18.8487713 L119.50251,18.8487713 C121.780813,18.8487713 123.351636,16.9823923 123.351636,13.7697726 Z M126.92303,13.7697726 C126.92303,18.4204221 123.782025,21.7254683 119.348571,21.7254683 C114.945263,21.7254683 111.804899,18.4204221 111.804899,13.7697726 C111.804899,9.11848563 114.945263,5.81343936 119.348571,5.81343936 C123.782025,5.81343936 126.92303,9.11848563 126.92303,13.7697726 Z M103.535788,8.5983472 L103.812879,8.5983472 C105.413848,8.5983472 106.275909,9.60802769 106.429848,11.0460575 L109.970455,11.0460575 C109.970455,7.86403412 107.784515,5.81343936 103.751303,5.81343936 C100.240843,5.81343936 97.7162374,7.64985948 97.7162374,10.525919 C97.7162374,13.0654184 99.4403586,14.3817001 102.365848,15.0548204 L104.458783,15.5137661 C105.752515,15.7891335 106.275909,16.3398683 106.275909,17.2271633 C106.275909,18.2674402 105.259909,18.9405605 103.874455,18.9405605 L103.628152,18.9405605 C101.965606,18.9405605 100.764879,18.0226691 100.671874,16.4928502 L97.1004798,16.4928502 C97.1614141,19.6748736 99.4711465,21.7254683 103.597364,21.7254683 C107.507424,21.7254683 109.817157,19.7360663 109.817157,17.0741814 C109.817157,14.5040856 108.216187,13.157845 105.506212,12.5459174 L103.289485,12.0251416 C101.90403,11.7191778 101.256843,11.168443 101.256843,10.3117444 C101.256843,9.33266028 102.211909,8.5983472 103.535788,8.5983472 Z M88.6530556,8.69013634 L88.8685707,8.69013634 C90.5926919,8.69013634 91.6394798,9.76100958 91.8864242,11.3526587 L95.4270303,11.3526587 C95.1191515,7.74164861 92.5637576,5.81343936 88.7762071,5.81343936 C84.3421111,5.81343936 81.3864747,9.05729288 81.3864747,13.7697726 C81.3864747,18.4816148 84.3421111,21.7254683 88.7762071,21.7254683 C92.5637576,21.7254683 95.1191515,19.7978965 95.4270303,16.1868864 L91.8864242,16.1868864 C91.6394798,17.7778981 90.5926919,18.8487713 88.8685707,18.8487713 L88.6530556,18.8487713 C86.0668737,18.8487713 84.9270808,16.4928502 84.9270808,13.7697726 C84.9270808,11.0460575 86.0668737,8.69013634 88.6530556,8.69013634 Z M75.3443535,14.5952373 L71.8031061,14.9018386 C70.4484394,15.0235866 69.1861364,15.6973444 69.1861364,17.0129887 C69.1861364,18.0838619 70.1097727,18.8487713 71.3720758,18.8487713 L71.5875909,18.8487713 C73.4348636,18.8487713 75.3443535,17.4107416 75.3443535,15.4831697 L75.3443535,14.5952373 Z M78.8240253,18.0532655 C78.8240253,18.9717943 78.8240253,20.3486313 78.9773232,21.4195045 L75.6515909,21.4195045 C75.5290808,20.8375359 75.4982929,19.7673001 75.4668636,19.307717 C74.6663788,20.6539577 72.942899,21.7254683 70.7563182,21.7254683 C67.9231919,21.7254683 65.7064646,19.8890482 65.7064646,17.2271633 C65.7064646,13.8303279 68.508803,12.515321 71.3105,12.300509 L75.3443535,11.9645862 L75.3443535,11.5362369 C75.3443535,9.82220233 74.2661364,8.69013634 72.5426566,8.69013634 L72.3579293,8.69013634 C70.7871061,8.69013634 69.6787424,9.57743131 69.5549495,10.7400937 L66.0143434,10.7400937 C66.2612879,7.8946305 68.7544646,5.81343936 72.4496515,5.81343936 C76.3911414,5.81343936 78.8240253,8.07820877 78.8240253,11.4438104 L78.8240253,18.0532655 Z M58.9555808,9.3020639 L58.9555808,6.12004056 L55.4759091,6.12004056 L55.4759091,21.4195045 L59.0171566,21.4195045 L59.0171566,13.5555979 C59.0171566,10.7706901 60.4641869,9.27146753 63.1427323,9.27146753 L64.4672525,9.27146753 L64.4672525,5.96642125 L63.4198232,5.96642125 C61.2646717,5.96642125 59.5713384,7.19027638 58.9555808,9.3020639 Z M49.2176313,11.9645862 C49.0951212,9.76100958 47.6166616,8.69013634 45.8925404,8.69013634 L45.6770253,8.69013634 C44.0144798,8.69013634 42.444298,9.7304132 42.1665657,11.9645862 L49.2176313,11.9645862 Z M52.697303,13.1272486 C52.697303,13.4019786 52.6665152,14.4116591 52.6363687,14.6876639 L42.0748434,14.6876639 C42.2595707,17.3801452 44.1684192,18.8487713 45.9547576,18.8487713 L46.1394848,18.8487713 C47.6782374,18.8487713 48.8173889,17.9920728 49.1259091,16.7070249 L52.6363687,16.7070249 C51.9891818,19.7673001 49.4953636,21.7254683 45.9233283,21.7254683 C42.0748434,21.7254683 38.6259596,18.9405605 38.6259596,13.7697726 C38.6259596,8.87371461 41.674601,5.81343936 45.8617525,5.81343936 C50.2336313,5.81343936 52.697303,8.90431099 52.697303,13.1272486 Z M33.5190202,16.8906031 L33.5190202,9.0266965 L37.0596263,9.0266965 L37.0596263,6.12004056 L33.5190202,6.12004056 L33.5190202,1.16278986 L29.9777727,1.16278986 L29.9777727,6.12004056 L26.7142576,6.12004056 L26.7142576,9.0266965 L29.9777727,9.0266965 L29.9777727,17.7167054 C29.9777727,20.1032229 31.3022929,21.4195045 33.7037475,21.4195045 L37.5214444,21.4195045 L37.5214444,18.3904631 L35.0276263,18.3904631 C33.826899,18.3904631 33.5190202,18.0838619 33.5190202,16.8906031 Z M24.9830808,11.4438104 L24.9830808,21.4195045 L21.4424747,21.4195045 L21.4424747,11.9645862 C21.4424747,9.91399147 20.518197,8.69013634 18.7325,8.69013634 L18.4554091,8.69013634 C16.4849848,8.69013634 14.7608636,10.4035335 14.7608636,12.8818402 L14.7608636,21.4195045 L11.2196162,21.4195045 L11.2196162,6.12004056 L14.7608636,6.12004056 L14.7608636,8.3229798 C15.6845,6.85435364 17.3470455,5.81343936 19.5329848,5.81343936 C23.166596,5.81343936 24.9830808,8.13940153 24.9830808,11.4438104 Z" id="Fill-1"></path>
                        </g>
                    </g>
                </g>
            </g>
        </g>
    </g>
</svg>